<?xml version="1.0" standalone="no"?><!DOCTYPE svg PUBLIC "-//W3C//DTD SVG 1.1//EN" "http://www.w3.org/Graphics/SVG/1.1/DTD/svg11.dtd"><svg t="1540954555311" class="icon" style="" viewBox="0 0 1024 1024" version="1.1" xmlns="http://www.w3.org/2000/svg" p-id="1180" xmlns:xlink="http://www.w3.org/1999/xlink" width="128" height="128"><defs><style type="text/css"></style></defs><path d="M730.453333 426.666667l-46.08-77.653334-31.146666 122.453334 106.24 193.706666V938.666667H682.666667v-213.333334l-99.413334-132.693333-68.266666 192.426667-205.653334 89.6L264.533333 810.666667l178.773334-105.386667 107.52-420.693333-90.026667 28.16V469.333333H384V247.466667l231.253333-72.106667 21.333334-3.413333c26.453333 0 49.493333 14.506667 62.293333 35.84l85.333333 142.08H938.666667V426.666667h-208.213334M725.333333 162.133333c-42.666667 0-76.8-34.133333-76.8-76.8S682.666667 8.533333 725.333333 8.533333s76.8 34.133333 76.8 76.8S768 162.133333 725.333333 162.133333M298.666667 384v85.333333H170.666667a42.666667 42.666667 0 0 1-42.666667-42.666666 42.666667 42.666667 0 0 1 42.666667-42.666667h128m96 170.666667l-21.333334 85.333333H213.333333a42.666667 42.666667 0 0 1-42.666666-42.666667 42.666667 42.666667 0 0 1 42.666666-42.666666h181.333334M298.666667 213.333333v85.333334H128a42.666667 42.666667 0 0 1-42.666667-42.666667 42.666667 42.666667 0 0 1 42.666667-42.666667h170.666667z" fill="#2c2c2c" p-id="1181"></path></svg>